<?xml version="1.0" encoding="UTF-8" standalone="no"?>
<!DOCTYPE svg PUBLIC "-//W3C//DTD SVG 1.1//EN"
 "http://www.w3.org/Graphics/SVG/1.1/DTD/svg11.dtd">
<!-- Generated by graphviz version 2.38.0 (20140413.2041)
 -->
<!-- Title: snakemake_dag Pages: 1 -->
<svg width="865pt" height="764pt"
 viewBox="0.00 0.00 865.00 764.00" xmlns="http://www.w3.org/2000/svg" xmlns:xlink="http://www.w3.org/1999/xlink">
<g id="graph0" class="graph" transform="scale(1 1) rotate(0) translate(4 760)">
<title>snakemake_dag</title>
<polygon fill="white" stroke="none" points="-4,4 -4,-760 861,-760 861,4 -4,4"/>
<!-- 0 -->
<g id="node1" class="node"><title>0</title>
<path fill="none" stroke="#d8ac56" stroke-width="2" d="M264,-36C264,-36 234,-36 234,-36 228,-36 222,-30 222,-24 222,-24 222,-12 222,-12 222,-6 228,-0 234,-0 234,-0 264,-0 264,-0 270,-0 276,-6 276,-12 276,-12 276,-24 276,-24 276,-30 270,-36 264,-36"/>
<text text-anchor="middle" x="249" y="-15.5" font-family="sans" font-size="10.00">all</text>
</g>
<!-- 1 -->
<g id="node2" class="node"><title>1</title>
<path fill="none" stroke="#56d85b" stroke-width="2" d="M292,-108C292,-108 262,-108 262,-108 256,-108 250,-102 250,-96 250,-96 250,-84 250,-84 250,-78 256,-72 262,-72 262,-72 292,-72 292,-72 298,-72 304,-78 304,-84 304,-84 304,-96 304,-96 304,-102 298,-108 292,-108"/>
<text text-anchor="middle" x="277" y="-87.5" font-family="sans" font-size="10.00">multiqc</text>
</g>
<!-- 1&#45;&gt;0 -->
<g id="edge1" class="edge"><title>1&#45;&gt;0</title>
<path fill="none" stroke="grey" stroke-width="2" d="M270.079,-71.6966C266.925,-63.8132 263.122,-54.3042 259.619,-45.5464"/>
<polygon fill="grey" stroke="grey" stroke-width="2" points="262.805,-44.0892 255.842,-36.1043 256.306,-46.689 262.805,-44.0892"/>
</g>
<!-- 2 -->
<g id="node3" class="node"><title>2</title>
<path fill="none" stroke="#d89c56" stroke-width="2" d="M300.5,-252C300.5,-252 247.5,-252 247.5,-252 241.5,-252 235.5,-246 235.5,-240 235.5,-240 235.5,-228 235.5,-228 235.5,-222 241.5,-216 247.5,-216 247.5,-216 300.5,-216 300.5,-216 306.5,-216 312.5,-222 312.5,-228 312.5,-228 312.5,-240 312.5,-240 312.5,-246 306.5,-252 300.5,-252"/>
<text text-anchor="middle" x="274" y="-231.5" font-family="sans" font-size="10.00">merge_stats</text>
</g>
<!-- 2&#45;&gt;0 -->
<g id="edge2" class="edge"><title>2&#45;&gt;0</title>
<path fill="none" stroke="grey" stroke-width="2" d="M259.673,-215.566C252.552,-205.762 244.694,-192.923 241,-180 228.007,-134.551 235.642,-78.9885 242.341,-46.4432"/>
<polygon fill="grey" stroke="grey" stroke-width="2" points="245.834,-46.8526 244.545,-36.3363 238.994,-45.3606 245.834,-46.8526"/>
</g>
<!-- 9 -->
<g id="node10" class="node"><title>9</title>
<path fill="none" stroke="#d6d856" stroke-width="2" d="M299.5,-180C299.5,-180 262.5,-180 262.5,-180 256.5,-180 250.5,-174 250.5,-168 250.5,-168 250.5,-156 250.5,-156 250.5,-150 256.5,-144 262.5,-144 262.5,-144 299.5,-144 299.5,-144 305.5,-144 311.5,-150 311.5,-156 311.5,-156 311.5,-168 311.5,-168 311.5,-174 305.5,-180 299.5,-180"/>
<text text-anchor="middle" x="281" y="-159.5" font-family="sans" font-size="10.00">stats_tsv</text>
</g>
<!-- 2&#45;&gt;9 -->
<g id="edge18" class="edge"><title>2&#45;&gt;9</title>
<path fill="none" stroke="grey" stroke-width="2" d="M275.73,-215.697C276.502,-207.983 277.429,-198.712 278.289,-190.112"/>
<polygon fill="grey" stroke="grey" stroke-width="2" points="281.777,-190.403 279.29,-180.104 274.812,-189.706 281.777,-190.403"/>
</g>
<!-- 3 -->
<g id="node4" class="node"><title>3</title>
<path fill="none" stroke="#56d8a2" stroke-width="2" d="M199,-252C199,-252 169,-252 169,-252 163,-252 157,-246 157,-240 157,-240 157,-228 157,-228 157,-222 163,-216 169,-216 169,-216 199,-216 199,-216 205,-216 211,-222 211,-228 211,-228 211,-240 211,-240 211,-246 205,-252 199,-252"/>
<text text-anchor="middle" x="184" y="-231.5" font-family="sans" font-size="10.00">bai</text>
</g>
<!-- 3&#45;&gt;0 -->
<g id="edge3" class="edge"><title>3&#45;&gt;0</title>
<path fill="none" stroke="grey" stroke-width="2" d="M188.831,-215.533C197.087,-185.898 214.612,-123.926 231,-72 233.703,-63.4353 236.801,-54.1468 239.655,-45.7734"/>
<polygon fill="grey" stroke="grey" stroke-width="2" points="243.031,-46.7185 242.974,-36.1238 236.412,-44.4417 243.031,-46.7185"/>
</g>
<!-- 4 -->
<g id="node5" class="node"><title>4</title>
<path fill="none" stroke="#80d856" stroke-width="2" d="M143.5,-396C143.5,-396 68.5,-396 68.5,-396 62.5,-396 56.5,-390 56.5,-384 56.5,-384 56.5,-372 56.5,-372 56.5,-366 62.5,-360 68.5,-360 68.5,-360 143.5,-360 143.5,-360 149.5,-360 155.5,-366 155.5,-372 155.5,-372 155.5,-384 155.5,-384 155.5,-390 149.5,-396 143.5,-396"/>
<text text-anchor="middle" x="106" y="-381" font-family="sans" font-size="10.00">genotype_gather</text>
<text text-anchor="middle" x="106" y="-370" font-family="sans" font-size="10.00">sample: micro</text>
</g>
<!-- 4&#45;&gt;0 -->
<g id="edge4" class="edge"><title>4&#45;&gt;0</title>
<path fill="none" stroke="grey" stroke-width="2" d="M109.238,-359.582C113.913,-332.875 122,-280.152 122,-235 122,-235 122,-235 122,-161 122,-106.038 175.514,-62.5964 213.067,-38.878"/>
<polygon fill="grey" stroke="grey" stroke-width="2" points="215.055,-41.7651 221.755,-33.5582 211.399,-35.7953 215.055,-41.7651"/>
</g>
<!-- 11 -->
<g id="node12" class="node"><title>11</title>
<path fill="none" stroke="#56d8c1" stroke-width="2" d="M299,-324C299,-324 237,-324 237,-324 231,-324 225,-318 225,-312 225,-312 225,-300 225,-300 225,-294 231,-288 237,-288 237,-288 299,-288 299,-288 305,-288 311,-294 311,-300 311,-300 311,-312 311,-312 311,-318 305,-324 299,-324"/>
<text text-anchor="middle" x="268" y="-309" font-family="sans" font-size="10.00">vcfstats</text>
<text text-anchor="middle" x="268" y="-298" font-family="sans" font-size="10.00">sampel: micro</text>
</g>
<!-- 4&#45;&gt;11 -->
<g id="edge25" class="edge"><title>4&#45;&gt;11</title>
<path fill="none" stroke="grey" stroke-width="2" d="M145.63,-359.876C167.776,-350.307 195.563,-338.3 219.058,-328.148"/>
<polygon fill="grey" stroke="grey" stroke-width="2" points="220.708,-331.248 228.499,-324.068 217.931,-324.822 220.708,-331.248"/>
</g>
<!-- 5 -->
<g id="node6" class="node"><title>5</title>
<path fill="none" stroke="#d8bc56" stroke-width="2" d="M74,-180C74,-180 12,-180 12,-180 6,-180 0,-174 0,-168 0,-168 0,-156 0,-156 0,-150 6,-144 12,-144 12,-144 74,-144 74,-144 80,-144 86,-150 86,-156 86,-156 86,-168 86,-168 86,-174 80,-180 74,-180"/>
<text text-anchor="middle" x="43" y="-165" font-family="sans" font-size="10.00">gvcf_gather</text>
<text text-anchor="middle" x="43" y="-154" font-family="sans" font-size="10.00">sample: micro</text>
</g>
<!-- 5&#45;&gt;0 -->
<g id="edge5" class="edge"><title>5&#45;&gt;0</title>
<path fill="none" stroke="grey" stroke-width="2" d="M51.4982,-143.928C62.1732,-124.084 82.2537,-91.5632 108,-72 139.054,-48.4034 181.781,-34.3124 212.04,-26.6602"/>
<polygon fill="grey" stroke="grey" stroke-width="2" points="212.889,-30.0558 221.789,-24.3075 211.246,-23.2512 212.889,-30.0558"/>
</g>
<!-- 6 -->
<g id="node7" class="node"><title>6</title>
<path fill="none" stroke="#c6d856" stroke-width="2" d="M396,-108C396,-108 334,-108 334,-108 328,-108 322,-102 322,-96 322,-96 322,-84 322,-84 322,-78 328,-72 334,-72 334,-72 396,-72 396,-72 402,-72 408,-78 408,-84 408,-84 408,-96 408,-96 408,-102 402,-108 396,-108"/>
<text text-anchor="middle" x="365" y="-93" font-family="sans" font-size="10.00">fastqc_raw</text>
<text text-anchor="middle" x="365" y="-82" font-family="sans" font-size="10.00">sample: micro</text>
</g>
<!-- 6&#45;&gt;0 -->
<g id="edge6" class="edge"><title>6&#45;&gt;0</title>
<path fill="none" stroke="grey" stroke-width="2" d="M336.623,-71.8761C321.117,-62.5187 301.748,-50.831 285.168,-40.8253"/>
<polygon fill="grey" stroke="grey" stroke-width="2" points="286.655,-37.6351 276.285,-35.4651 283.039,-43.6285 286.655,-37.6351"/>
</g>
<!-- 7 -->
<g id="node8" class="node"><title>7</title>
<path fill="none" stroke="#56a9d8" stroke-width="2" d="M775.5,-612C775.5,-612 710.5,-612 710.5,-612 704.5,-612 698.5,-606 698.5,-600 698.5,-600 698.5,-588 698.5,-588 698.5,-582 704.5,-576 710.5,-576 710.5,-576 775.5,-576 775.5,-576 781.5,-576 787.5,-582 787.5,-588 787.5,-588 787.5,-600 787.5,-600 787.5,-606 781.5,-612 775.5,-612"/>
<text text-anchor="middle" x="743" y="-591.5" font-family="sans" font-size="10.00">fastqc_merged</text>
</g>
<!-- 7&#45;&gt;0 -->
<g id="edge7" class="edge"><title>7&#45;&gt;0</title>
<path fill="none" stroke="grey" stroke-width="2" d="M750.488,-575.887C761.299,-549.577 780,-497.366 780,-451 780,-451 780,-451 780,-161 780,-58.6425 407.118,-28.1179 286.296,-20.9139"/>
<polygon fill="grey" stroke="grey" stroke-width="2" points="286.247,-17.4053 276.062,-20.324 285.844,-24.3937 286.247,-17.4053"/>
</g>
<!-- 21 -->
<g id="node22" class="node"><title>21</title>
<path fill="none" stroke="#8fd856" stroke-width="2" d="M740,-468C740,-468 688,-468 688,-468 682,-468 676,-462 676,-456 676,-456 676,-444 676,-444 676,-438 682,-432 688,-432 688,-432 740,-432 740,-432 746,-432 752,-438 752,-444 752,-444 752,-456 752,-456 752,-462 746,-468 740,-468"/>
<text text-anchor="middle" x="714" y="-447.5" font-family="sans" font-size="10.00">fastqc_stats</text>
</g>
<!-- 7&#45;&gt;21 -->
<g id="edge34" class="edge"><title>7&#45;&gt;21</title>
<path fill="none" stroke="grey" stroke-width="2" d="M739.502,-575.871C734.538,-551.564 725.4,-506.819 719.517,-478.013"/>
<polygon fill="grey" stroke="grey" stroke-width="2" points="722.941,-477.287 717.51,-468.189 716.082,-478.687 722.941,-477.287"/>
</g>
<!-- 8 -->
<g id="node9" class="node"><title>8</title>
<path fill="none" stroke="#56d8b1" stroke-width="2" d="M702,-540C702,-540 642,-540 642,-540 636,-540 630,-534 630,-528 630,-528 630,-516 630,-516 630,-510 636,-504 642,-504 642,-504 702,-504 702,-504 708,-504 714,-510 714,-516 714,-516 714,-528 714,-528 714,-534 708,-540 702,-540"/>
<text text-anchor="middle" x="672" y="-519.5" font-family="sans" font-size="10.00">fastqc_postqc</text>
</g>
<!-- 8&#45;&gt;0 -->
<g id="edge8" class="edge"><title>8&#45;&gt;0</title>
<path fill="none" stroke="grey" stroke-width="2" d="M667.143,-503.671C660.13,-477.079 648,-424.504 648,-379 648,-379 648,-379 648,-161 648,-84.6487 385.401,-38.7226 286.275,-24.1063"/>
<polygon fill="grey" stroke="grey" stroke-width="2" points="286.51,-20.6038 276.111,-22.6333 285.506,-27.5315 286.51,-20.6038"/>
</g>
<!-- 8&#45;&gt;21 -->
<g id="edge35" class="edge"><title>8&#45;&gt;21</title>
<path fill="none" stroke="grey" stroke-width="2" d="M682.382,-503.697C687.265,-495.559 693.187,-485.689 698.579,-476.701"/>
<polygon fill="grey" stroke="grey" stroke-width="2" points="701.594,-478.48 703.737,-468.104 695.591,-474.879 701.594,-478.48"/>
</g>
<!-- 9&#45;&gt;1 -->
<g id="edge9" class="edge"><title>9&#45;&gt;1</title>
<path fill="none" stroke="grey" stroke-width="2" d="M280.011,-143.697C279.57,-135.983 279.041,-126.712 278.549,-118.112"/>
<polygon fill="grey" stroke="grey" stroke-width="2" points="282.042,-117.888 277.977,-108.104 275.054,-118.288 282.042,-117.888"/>
</g>
<!-- 10 -->
<g id="node11" class="node"><title>10</title>
<path fill="none" stroke="#568ad8" stroke-width="2" d="M507.5,-324C507.5,-324 458.5,-324 458.5,-324 452.5,-324 446.5,-318 446.5,-312 446.5,-312 446.5,-300 446.5,-300 446.5,-294 452.5,-288 458.5,-288 458.5,-288 507.5,-288 507.5,-288 513.5,-288 519.5,-294 519.5,-300 519.5,-300 519.5,-312 519.5,-312 519.5,-318 513.5,-324 507.5,-324"/>
<text text-anchor="middle" x="483" y="-303.5" font-family="sans" font-size="10.00">collectstats</text>
</g>
<!-- 10&#45;&gt;2 -->
<g id="edge10" class="edge"><title>10&#45;&gt;2</title>
<path fill="none" stroke="grey" stroke-width="2" d="M446.116,-292.647C411.692,-281.117 360.114,-263.842 322.396,-251.209"/>
<polygon fill="grey" stroke="grey" stroke-width="2" points="323.232,-247.798 312.638,-247.941 321.009,-254.436 323.232,-247.798"/>
</g>
<!-- 11&#45;&gt;2 -->
<g id="edge11" class="edge"><title>11&#45;&gt;2</title>
<path fill="none" stroke="grey" stroke-width="2" d="M269.483,-287.697C270.144,-279.983 270.939,-270.712 271.676,-262.112"/>
<polygon fill="grey" stroke="grey" stroke-width="2" points="275.167,-262.367 272.534,-252.104 268.193,-261.769 275.167,-262.367"/>
</g>
<!-- 12 -->
<g id="node13" class="node"><title>12</title>
<path fill="none" stroke="#d88556" stroke-width="2" d="M339,-468C339,-468 303,-468 303,-468 297,-468 291,-462 291,-456 291,-456 291,-444 291,-444 291,-438 297,-432 303,-432 303,-432 339,-432 339,-432 345,-432 351,-438 351,-444 351,-444 351,-456 351,-456 351,-462 345,-468 339,-468"/>
<text text-anchor="middle" x="321" y="-447.5" font-family="sans" font-size="10.00">markdup</text>
</g>
<!-- 12&#45;&gt;3 -->
<g id="edge12" class="edge"><title>12&#45;&gt;3</title>
<path fill="none" stroke="grey" stroke-width="2" d="M290.803,-444.046C263.262,-437.834 223.793,-424.336 203,-396 174.227,-356.79 175.641,-297.158 179.599,-262.539"/>
<polygon fill="grey" stroke="grey" stroke-width="2" points="183.12,-262.603 180.938,-252.235 176.178,-261.701 183.12,-262.603"/>
</g>
<!-- 20 -->
<g id="node21" class="node"><title>20</title>
<path fill="none" stroke="#d8cb56" stroke-width="2" d="M316,-396C316,-396 224,-396 224,-396 218,-396 212,-390 212,-384 212,-384 212,-372 212,-372 212,-366 218,-360 224,-360 224,-360 316,-360 316,-360 322,-360 328,-366 328,-372 328,-372 328,-384 328,-384 328,-390 322,-396 316,-396"/>
<text text-anchor="middle" x="270" y="-375.5" font-family="sans" font-size="10.00">unique_reads_bases</text>
</g>
<!-- 12&#45;&gt;20 -->
<g id="edge33" class="edge"><title>12&#45;&gt;20</title>
<path fill="none" stroke="grey" stroke-width="2" d="M308.393,-431.697C302.403,-423.474 295.124,-413.483 288.521,-404.421"/>
<polygon fill="grey" stroke="grey" stroke-width="2" points="291.179,-402.126 282.462,-396.104 285.522,-406.248 291.179,-402.126"/>
</g>
<!-- 22 -->
<g id="node23" class="node"><title>22</title>
<path fill="none" stroke="#70d856" stroke-width="2" d="M392,-396C392,-396 358,-396 358,-396 352,-396 346,-390 346,-384 346,-384 346,-372 346,-372 346,-366 352,-360 358,-360 358,-360 392,-360 392,-360 398,-360 404,-366 404,-372 404,-372 404,-384 404,-384 404,-390 398,-396 392,-396"/>
<text text-anchor="middle" x="375" y="-375.5" font-family="sans" font-size="10.00">covstats</text>
</g>
<!-- 12&#45;&gt;22 -->
<g id="edge36" class="edge"><title>12&#45;&gt;22</title>
<path fill="none" stroke="grey" stroke-width="2" d="M334.348,-431.697C340.757,-423.389 348.558,-413.277 355.606,-404.141"/>
<polygon fill="grey" stroke="grey" stroke-width="2" points="358.468,-406.16 361.805,-396.104 352.926,-401.884 358.468,-406.16"/>
</g>
<!-- 13 -->
<g id="node14" class="node"><title>13</title>
<path fill="none" stroke="#569ad8" stroke-width="2" d="M98,-468C98,-468 36,-468 36,-468 30,-468 24,-462 24,-456 24,-456 24,-444 24,-444 24,-438 30,-432 36,-432 36,-432 98,-432 98,-432 104,-432 110,-438 110,-444 110,-444 110,-456 110,-456 110,-462 104,-468 98,-468"/>
<text text-anchor="middle" x="67" y="-447.5" font-family="sans" font-size="10.00">scatterregions</text>
</g>
<!-- 13&#45;&gt;4 -->
<g id="edge13" class="edge"><title>13&#45;&gt;4</title>
<path fill="none" stroke="grey" stroke-width="2" d="M76.6405,-431.697C81.1271,-423.644 86.5588,-413.894 91.5241,-404.982"/>
<polygon fill="grey" stroke="grey" stroke-width="2" points="94.6609,-406.544 96.4704,-396.104 88.5459,-403.137 94.6609,-406.544"/>
</g>
<!-- 13&#45;&gt;5 -->
<g id="edge14" class="edge"><title>13&#45;&gt;5</title>
<path fill="none" stroke="grey" stroke-width="2" d="M58.7738,-431.773C54.3651,-421.614 49.3651,-408.364 47,-396 32.9856,-322.735 37.0831,-234.144 40.473,-190.306"/>
<polygon fill="grey" stroke="grey" stroke-width="2" points="43.9758,-190.415 41.3081,-180.162 36.9994,-189.841 43.9758,-190.415"/>
</g>
<!-- 14 -->
<g id="node15" class="node"><title>14</title>
<path fill="none" stroke="#d86656" stroke-width="2" d="M812,-756C812,-756 750,-756 750,-756 744,-756 738,-750 738,-744 738,-744 738,-732 738,-732 738,-726 744,-720 750,-720 750,-720 812,-720 812,-720 818,-720 824,-726 824,-732 824,-732 824,-744 824,-744 824,-750 818,-756 812,-756"/>
<text text-anchor="middle" x="781" y="-741" font-family="sans" font-size="10.00">merge_r1</text>
<text text-anchor="middle" x="781" y="-730" font-family="sans" font-size="10.00">sample: micro</text>
</g>
<!-- 14&#45;&gt;7 -->
<g id="edge15" class="edge"><title>14&#45;&gt;7</title>
<path fill="none" stroke="grey" stroke-width="2" d="M774.069,-719.525C770.175,-709.284 765.425,-696.034 762,-684 756.198,-663.613 751.259,-640.152 747.872,-622.438"/>
<polygon fill="grey" stroke="grey" stroke-width="2" points="751.243,-621.419 745.97,-612.229 744.361,-622.701 751.243,-621.419"/>
</g>
<!-- 17 -->
<g id="node18" class="node"><title>17</title>
<path fill="none" stroke="#56c9d8" stroke-width="2" d="M845,-684C845,-684 783,-684 783,-684 777,-684 771,-678 771,-672 771,-672 771,-660 771,-660 771,-654 777,-648 783,-648 783,-648 845,-648 845,-648 851,-648 857,-654 857,-660 857,-660 857,-672 857,-672 857,-678 851,-684 845,-684"/>
<text text-anchor="middle" x="814" y="-663.5" font-family="sans" font-size="10.00">fqcount_preqc</text>
</g>
<!-- 14&#45;&gt;17 -->
<g id="edge29" class="edge"><title>14&#45;&gt;17</title>
<path fill="none" stroke="grey" stroke-width="2" d="M789.157,-719.697C792.914,-711.728 797.453,-702.1 801.618,-693.264"/>
<polygon fill="grey" stroke="grey" stroke-width="2" points="804.838,-694.642 805.937,-684.104 798.506,-691.657 804.838,-694.642"/>
</g>
<!-- 25 -->
<g id="node26" class="node"><title>25</title>
<path fill="none" stroke="#567bd8" stroke-width="2" d="M665,-684C665,-684 635,-684 635,-684 629,-684 623,-678 623,-672 623,-672 623,-660 623,-660 623,-654 629,-648 635,-648 635,-648 665,-648 665,-648 671,-648 677,-654 677,-660 677,-660 677,-672 677,-672 677,-678 671,-684 665,-684"/>
<text text-anchor="middle" x="650" y="-663.5" font-family="sans" font-size="10.00">sickle</text>
</g>
<!-- 14&#45;&gt;25 -->
<g id="edge40" class="edge"><title>14&#45;&gt;25</title>
<path fill="none" stroke="grey" stroke-width="2" d="M748.954,-719.876C729.99,-709.743 705.913,-696.877 686.257,-686.374"/>
<polygon fill="grey" stroke="grey" stroke-width="2" points="687.758,-683.208 677.289,-681.582 684.459,-689.382 687.758,-683.208"/>
</g>
<!-- 15 -->
<g id="node16" class="node"><title>15</title>
<path fill="none" stroke="#afd856" stroke-width="2" d="M708,-756C708,-756 646,-756 646,-756 640,-756 634,-750 634,-744 634,-744 634,-732 634,-732 634,-726 640,-720 646,-720 646,-720 708,-720 708,-720 714,-720 720,-726 720,-732 720,-732 720,-744 720,-744 720,-750 714,-756 708,-756"/>
<text text-anchor="middle" x="677" y="-741" font-family="sans" font-size="10.00">merge_r2</text>
<text text-anchor="middle" x="677" y="-730" font-family="sans" font-size="10.00">sample: micro</text>
</g>
<!-- 15&#45;&gt;7 -->
<g id="edge16" class="edge"><title>15&#45;&gt;7</title>
<path fill="none" stroke="grey" stroke-width="2" d="M684.961,-719.871C696.358,-695.35 717.422,-650.032 730.795,-621.259"/>
<polygon fill="grey" stroke="grey" stroke-width="2" points="733.97,-622.733 735.011,-612.189 727.622,-619.782 733.97,-622.733"/>
</g>
<!-- 15&#45;&gt;17 -->
<g id="edge30" class="edge"><title>15&#45;&gt;17</title>
<path fill="none" stroke="grey" stroke-width="2" d="M710.514,-719.876C728.841,-710.512 751.736,-698.814 771.328,-688.803"/>
<polygon fill="grey" stroke="grey" stroke-width="2" points="773.045,-691.857 780.357,-684.19 769.86,-685.623 773.045,-691.857"/>
</g>
<!-- 15&#45;&gt;25 -->
<g id="edge41" class="edge"><title>15&#45;&gt;25</title>
<path fill="none" stroke="grey" stroke-width="2" d="M670.326,-719.697C667.285,-711.813 663.617,-702.304 660.239,-693.546"/>
<polygon fill="grey" stroke="grey" stroke-width="2" points="663.462,-692.175 656.597,-684.104 656.931,-694.694 663.462,-692.175"/>
</g>
<!-- 16 -->
<g id="node17" class="node"><title>16</title>
<path fill="none" stroke="#56d873" stroke-width="2" d="M625.5,-612C625.5,-612 590.5,-612 590.5,-612 584.5,-612 578.5,-606 578.5,-600 578.5,-600 578.5,-588 578.5,-588 578.5,-582 584.5,-576 590.5,-576 590.5,-576 625.5,-576 625.5,-576 631.5,-576 637.5,-582 637.5,-588 637.5,-588 637.5,-600 637.5,-600 637.5,-606 631.5,-612 625.5,-612"/>
<text text-anchor="middle" x="608" y="-591.5" font-family="sans" font-size="10.00">cutadapt</text>
</g>
<!-- 16&#45;&gt;8 -->
<g id="edge17" class="edge"><title>16&#45;&gt;8</title>
<path fill="none" stroke="grey" stroke-width="2" d="M623.82,-575.697C631.57,-567.22 641.039,-556.864 649.524,-547.583"/>
<polygon fill="grey" stroke="grey" stroke-width="2" points="652.197,-549.846 656.362,-540.104 647.031,-545.123 652.197,-549.846"/>
</g>
<!-- 18 -->
<g id="node19" class="node"><title>18</title>
<path fill="none" stroke="#56d882" stroke-width="2" d="M599.5,-540C599.5,-540 532.5,-540 532.5,-540 526.5,-540 520.5,-534 520.5,-528 520.5,-528 520.5,-516 520.5,-516 520.5,-510 526.5,-504 532.5,-504 532.5,-504 599.5,-504 599.5,-504 605.5,-504 611.5,-510 611.5,-516 611.5,-516 611.5,-528 611.5,-528 611.5,-534 605.5,-540 599.5,-540"/>
<text text-anchor="middle" x="566" y="-519.5" font-family="sans" font-size="10.00">fqcount_postqc</text>
</g>
<!-- 16&#45;&gt;18 -->
<g id="edge31" class="edge"><title>16&#45;&gt;18</title>
<path fill="none" stroke="grey" stroke-width="2" d="M597.618,-575.697C592.735,-567.559 586.813,-557.689 581.421,-548.701"/>
<polygon fill="grey" stroke="grey" stroke-width="2" points="584.409,-546.879 576.263,-540.104 578.406,-550.48 584.409,-546.879"/>
</g>
<!-- 23 -->
<g id="node24" class="node"><title>23</title>
<path fill="none" stroke="#5663d8" stroke-width="2" d="M465,-540C465,-540 435,-540 435,-540 429,-540 423,-534 423,-528 423,-528 423,-516 423,-516 423,-510 429,-504 435,-504 435,-504 465,-504 465,-504 471,-504 477,-510 477,-516 477,-516 477,-528 477,-528 477,-534 471,-540 465,-540"/>
<text text-anchor="middle" x="450" y="-519.5" font-family="sans" font-size="10.00">align</text>
</g>
<!-- 16&#45;&gt;23 -->
<g id="edge38" class="edge"><title>16&#45;&gt;23</title>
<path fill="none" stroke="grey" stroke-width="2" d="M578.281,-579.834C552.293,-568.32 514.458,-551.557 486.609,-539.219"/>
<polygon fill="grey" stroke="grey" stroke-width="2" points="487.771,-535.906 477.21,-535.055 484.935,-542.306 487.771,-535.906"/>
</g>
<!-- 17&#45;&gt;10 -->
<g id="edge19" class="edge"><title>17&#45;&gt;10</title>
<path fill="none" stroke="grey" stroke-width="2" d="M814.776,-647.72C815.743,-606.028 812.724,-498.458 761,-432 703.58,-358.223 593.018,-326.743 530.005,-314.318"/>
<polygon fill="grey" stroke="grey" stroke-width="2" points="530.417,-310.834 519.941,-312.416 529.117,-317.712 530.417,-310.834"/>
</g>
<!-- 18&#45;&gt;10 -->
<g id="edge20" class="edge"><title>18&#45;&gt;10</title>
<path fill="none" stroke="grey" stroke-width="2" d="M568.962,-503.729C573.372,-472.773 578.621,-406.716 553,-360 546.458,-348.072 535.969,-338.019 525.081,-329.983"/>
<polygon fill="grey" stroke="grey" stroke-width="2" points="526.956,-327.025 516.735,-324.234 522.985,-332.79 526.956,-327.025"/>
</g>
<!-- 19 -->
<g id="node20" class="node"><title>19</title>
<path fill="none" stroke="#56d892" stroke-width="2" d="M532,-396C532,-396 434,-396 434,-396 428,-396 422,-390 422,-384 422,-384 422,-372 422,-372 422,-366 428,-360 434,-360 434,-360 532,-360 532,-360 538,-360 544,-366 544,-372 544,-372 544,-384 544,-384 544,-390 538,-396 532,-396"/>
<text text-anchor="middle" x="483" y="-375.5" font-family="sans" font-size="10.00">mapped_reads_bases</text>
</g>
<!-- 19&#45;&gt;10 -->
<g id="edge21" class="edge"><title>19&#45;&gt;10</title>
<path fill="none" stroke="grey" stroke-width="2" d="M483,-359.697C483,-351.983 483,-342.712 483,-334.112"/>
<polygon fill="grey" stroke="grey" stroke-width="2" points="486.5,-334.104 483,-324.104 479.5,-334.104 486.5,-334.104"/>
</g>
<!-- 20&#45;&gt;10 -->
<g id="edge22" class="edge"><title>20&#45;&gt;10</title>
<path fill="none" stroke="grey" stroke-width="2" d="M321.833,-359.966C356.914,-348.437 402.851,-333.34 436.704,-322.215"/>
<polygon fill="grey" stroke="grey" stroke-width="2" points="437.946,-325.491 446.353,-319.044 435.76,-318.841 437.946,-325.491"/>
</g>
<!-- 21&#45;&gt;10 -->
<g id="edge23" class="edge"><title>21&#45;&gt;10</title>
<path fill="none" stroke="grey" stroke-width="2" d="M691.485,-431.982C666.383,-413.334 624.272,-383.014 586,-360 567.423,-348.829 546.23,-337.669 527.916,-328.491"/>
<polygon fill="grey" stroke="grey" stroke-width="2" points="529.421,-325.331 518.908,-324.019 526.308,-331.601 529.421,-325.331"/>
</g>
<!-- 22&#45;&gt;10 -->
<g id="edge24" class="edge"><title>22&#45;&gt;10</title>
<path fill="none" stroke="grey" stroke-width="2" d="M401.42,-359.876C415.41,-350.808 432.776,-339.552 447.886,-329.759"/>
<polygon fill="grey" stroke="grey" stroke-width="2" points="449.991,-332.566 456.479,-324.19 446.183,-326.692 449.991,-332.566"/>
</g>
<!-- 23&#45;&gt;12 -->
<g id="edge26" class="edge"><title>23&#45;&gt;12</title>
<path fill="none" stroke="grey" stroke-width="2" d="M422.957,-506.326C404.762,-496.452 380.48,-483.276 360.178,-472.259"/>
<polygon fill="grey" stroke="grey" stroke-width="2" points="361.625,-469.062 351.166,-467.369 358.286,-475.215 361.625,-469.062"/>
</g>
<!-- 23&#45;&gt;19 -->
<g id="edge32" class="edge"><title>23&#45;&gt;19</title>
<path fill="none" stroke="grey" stroke-width="2" d="M453.981,-503.871C459.63,-479.564 470.028,-434.819 476.722,-406.013"/>
<polygon fill="grey" stroke="grey" stroke-width="2" points="480.151,-406.722 479.005,-396.189 473.332,-405.137 480.151,-406.722"/>
</g>
<!-- 24 -->
<g id="node25" class="node"><title>24</title>
<path fill="none" stroke="#61d856" stroke-width="2" stroke-dasharray="5,2" d="M446.5,-612C446.5,-612 349.5,-612 349.5,-612 343.5,-612 337.5,-606 337.5,-600 337.5,-600 337.5,-588 337.5,-588 337.5,-582 343.5,-576 349.5,-576 349.5,-576 446.5,-576 446.5,-576 452.5,-576 458.5,-582 458.5,-588 458.5,-588 458.5,-600 458.5,-600 458.5,-606 452.5,-612 446.5,-612"/>
<text text-anchor="middle" x="398" y="-591.5" font-family="sans" font-size="10.00">create_markdup_tmp</text>
</g>
<!-- 24&#45;&gt;12 -->
<g id="edge27" class="edge"><title>24&#45;&gt;12</title>
<path fill="none" stroke="grey" stroke-width="2" d="M388.712,-575.871C375.415,-551.35 350.841,-506.032 335.239,-477.259"/>
<polygon fill="grey" stroke="grey" stroke-width="2" points="338.165,-475.312 330.321,-468.189 332.011,-478.648 338.165,-475.312"/>
</g>
<!-- 24&#45;&gt;23 -->
<g id="edge39" class="edge"><title>24&#45;&gt;23</title>
<path fill="none" stroke="grey" stroke-width="2" d="M410.854,-575.697C417.025,-567.389 424.537,-557.277 431.324,-548.141"/>
<polygon fill="grey" stroke="grey" stroke-width="2" points="434.14,-550.219 437.294,-540.104 428.521,-546.045 434.14,-550.219"/>
</g>
<!-- 25&#45;&gt;16 -->
<g id="edge28" class="edge"><title>25&#45;&gt;16</title>
<path fill="none" stroke="grey" stroke-width="2" d="M639.618,-647.697C634.735,-639.559 628.813,-629.689 623.421,-620.701"/>
<polygon fill="grey" stroke="grey" stroke-width="2" points="626.409,-618.879 618.263,-612.104 620.406,-622.48 626.409,-618.879"/>
</g>
<!-- 26 -->
<g id="node27" class="node"><title>26</title>
<path fill="none" stroke="#56b9d8" stroke-width="2" d="M413,-468C413,-468 381,-468 381,-468 375,-468 369,-462 369,-456 369,-456 369,-444 369,-444 369,-438 375,-432 381,-432 381,-432 413,-432 413,-432 419,-432 425,-438 425,-444 425,-444 425,-456 425,-456 425,-462 419,-468 413,-468"/>
<text text-anchor="middle" x="397" y="-447.5" font-family="sans" font-size="10.00">genome</text>
</g>
<!-- 26&#45;&gt;22 -->
<g id="edge37" class="edge"><title>26&#45;&gt;22</title>
<path fill="none" stroke="grey" stroke-width="2" d="M391.562,-431.697C389.111,-423.898 386.16,-414.509 383.432,-405.829"/>
<polygon fill="grey" stroke="grey" stroke-width="2" points="386.713,-404.595 380.376,-396.104 380.035,-406.694 386.713,-404.595"/>
</g>
</g>
</svg>
