<?xml version="1.0" encoding="UTF-8" standalone="no"?>
<!DOCTYPE svg PUBLIC "-//W3C//DTD SVG 1.1//EN"
 "http://www.w3.org/Graphics/SVG/1.1/DTD/svg11.dtd">
<!-- Generated by graphviz version 2.38.0 (20140413.2041)
 -->
<!-- Title: snakemake_dag Pages: 1 -->
<svg width="2240pt" height="616pt"
 viewBox="0.00 0.00 2240.00 616.00" xmlns="http://www.w3.org/2000/svg" xmlns:xlink="http://www.w3.org/1999/xlink">
<g id="graph0" class="graph" transform="scale(1 1) rotate(0) translate(4 612)">
<title>snakemake_dag</title>
<polygon fill="white" stroke="none" points="-4,4 -4,-612 2236,-612 2236,4 -4,4"/>
<!-- 0 -->
<g id="node1" class="node"><title>0</title>
<path fill="none" stroke="#567bd8" stroke-width="2" d="M2220,-258C2220,-258 2190,-258 2190,-258 2184,-258 2178,-252 2178,-246 2178,-246 2178,-234 2178,-234 2178,-228 2184,-222 2190,-222 2190,-222 2220,-222 2220,-222 2226,-222 2232,-228 2232,-234 2232,-234 2232,-246 2232,-246 2232,-252 2226,-258 2220,-258"/>
<text text-anchor="middle" x="2205" y="-237.5" font-family="sans" font-size="10.00">all</text>
</g>
<!-- 1 -->
<g id="node2" class="node"><title>1</title>
<path fill="none" stroke="#68d856" stroke-width="2" d="M1567,-302C1567,-302 1492,-302 1492,-302 1486,-302 1480,-296 1480,-290 1480,-290 1480,-278 1480,-278 1480,-272 1486,-266 1492,-266 1492,-266 1567,-266 1567,-266 1573,-266 1579,-272 1579,-278 1579,-278 1579,-290 1579,-290 1579,-296 1573,-302 1567,-302"/>
<text text-anchor="middle" x="1529.5" y="-281.5" font-family="sans" font-size="10.00">genotype_gather</text>
</g>
<!-- 1&#45;&gt;0 -->
<g id="edge6" class="edge"><title>1&#45;&gt;0</title>
<path fill="none" stroke="grey" stroke-width="2" d="M1579.12,-266.188C1590.73,-262.571 1603.19,-259.204 1615,-257 1739.52,-233.764 1772.83,-240 1899.5,-240 1899.5,-240 1899.5,-240 2006.5,-240 2062.72,-240 2127.94,-240 2167.58,-240"/>
<polygon fill="grey" stroke="grey" stroke-width="2" points="2167.8,-243.5 2177.8,-240 2167.8,-236.5 2167.8,-243.5"/>
</g>
<!-- 4 -->
<g id="node5" class="node"><title>4</title>
<path fill="none" stroke="#56c1d8" stroke-width="2" d="M1814,-212C1814,-212 1780,-212 1780,-212 1774,-212 1768,-206 1768,-200 1768,-200 1768,-188 1768,-188 1768,-182 1774,-176 1780,-176 1780,-176 1814,-176 1814,-176 1820,-176 1826,-182 1826,-188 1826,-188 1826,-200 1826,-200 1826,-206 1820,-212 1814,-212"/>
<text text-anchor="middle" x="1797" y="-191.5" font-family="sans" font-size="10.00">split_vcf</text>
</g>
<!-- 1&#45;&gt;4 -->
<g id="edge14" class="edge"><title>1&#45;&gt;4</title>
<path fill="none" stroke="red" stroke-width="2" d="M1550.44,-265.83C1566.64,-252.116 1590.71,-234.008 1615,-224 1661.84,-204.7 1720.34,-197.802 1757.94,-195.345"/>
<polygon fill="red" stroke="red" stroke-width="2" points="1758.18,-198.837 1767.96,-194.763 1757.77,-191.849 1758.18,-198.837"/>
</g>
<!-- 14 -->
<g id="node15" class="node"><title>14</title>
<path fill="none" stroke="#c6d856" stroke-width="2" d="M1720,-302C1720,-302 1627,-302 1627,-302 1621,-302 1615,-296 1615,-290 1615,-290 1615,-278 1615,-278 1615,-272 1621,-266 1627,-266 1627,-266 1720,-266 1720,-266 1726,-266 1732,-272 1732,-278 1732,-278 1732,-290 1732,-290 1732,-296 1726,-302 1720,-302"/>
<text text-anchor="middle" x="1673.5" y="-281.5" font-family="sans" font-size="10.00">genotype_gather_tbi</text>
</g>
<!-- 1&#45;&gt;14 -->
<g id="edge28" class="edge"><title>1&#45;&gt;14</title>
<path fill="none" stroke="red" stroke-width="2" d="M1579.37,-284C1587.47,-284 1595.99,-284 1604.46,-284"/>
<polygon fill="red" stroke="red" stroke-width="2" points="1604.73,-287.5 1614.73,-284 1604.73,-280.5 1604.73,-287.5"/>
</g>
<!-- 21 -->
<g id="node22" class="node"><title>21</title>
<path fill="none" stroke="#d85656" stroke-width="2" d="M1813,-340C1813,-340 1781,-340 1781,-340 1775,-340 1769,-334 1769,-328 1769,-328 1769,-316 1769,-316 1769,-310 1775,-304 1781,-304 1781,-304 1813,-304 1813,-304 1819,-304 1825,-310 1825,-316 1825,-316 1825,-328 1825,-328 1825,-334 1819,-340 1813,-340"/>
<text text-anchor="middle" x="1797" y="-319.5" font-family="sans" font-size="10.00">vcfstats</text>
</g>
<!-- 1&#45;&gt;21 -->
<g id="edge41" class="edge"><title>1&#45;&gt;21</title>
<path fill="none" stroke="grey" stroke-width="2" d="M1579.12,-301.803C1590.74,-305.421 1603.19,-308.79 1615,-311 1664.01,-320.17 1721.65,-322.204 1758.49,-322.422"/>
<polygon fill="grey" stroke="grey" stroke-width="2" points="1758.75,-325.922 1768.76,-322.438 1758.76,-318.922 1758.75,-325.922"/>
</g>
<!-- 2 -->
<g id="node3" class="node"><title>2</title>
<path fill="none" stroke="#d8c356" stroke-width="2" d="M2122,-304C2122,-304 2092,-304 2092,-304 2086,-304 2080,-298 2080,-292 2080,-292 2080,-280 2080,-280 2080,-274 2086,-268 2092,-268 2092,-268 2122,-268 2122,-268 2128,-268 2134,-274 2134,-280 2134,-280 2134,-292 2134,-292 2134,-298 2128,-304 2122,-304"/>
<text text-anchor="middle" x="2107" y="-283.5" font-family="sans" font-size="10.00">multiqc</text>
</g>
<!-- 2&#45;&gt;0 -->
<g id="edge8" class="edge"><title>2&#45;&gt;0</title>
<path fill="none" stroke="grey" stroke-width="2" d="M2134.23,-273.43C2144.82,-268.359 2157.19,-262.43 2168.55,-256.985"/>
<polygon fill="grey" stroke="grey" stroke-width="2" points="2170.29,-260.032 2177.8,-252.555 2167.27,-253.719 2170.29,-260.032"/>
</g>
<!-- 3 -->
<g id="node4" class="node"><title>3</title>
<path fill="none" stroke="#56d892" stroke-width="2" d="M1146,-608C1146,-608 1116,-608 1116,-608 1110,-608 1104,-602 1104,-596 1104,-596 1104,-584 1104,-584 1104,-578 1110,-572 1116,-572 1116,-572 1146,-572 1146,-572 1152,-572 1158,-578 1158,-584 1158,-584 1158,-596 1158,-596 1158,-602 1152,-608 1146,-608"/>
<text text-anchor="middle" x="1131" y="-587.5" font-family="sans" font-size="10.00">bai</text>
</g>
<!-- 3&#45;&gt;0 -->
<g id="edge3" class="edge"><title>3&#45;&gt;0</title>
<path fill="none" stroke="grey" stroke-width="2" d="M1158.03,-587.116C1204.12,-582.266 1303.14,-573 1387,-573 1387,-573 1387,-573 2006.5,-573 2147.7,-573 2190.15,-348.774 2200.84,-268.313"/>
<polygon fill="grey" stroke="grey" stroke-width="2" points="2204.32,-268.737 2202.1,-258.378 2197.37,-267.861 2204.32,-268.737"/>
</g>
<!-- 4&#45;&gt;0 -->
<g id="edge2" class="edge"><title>4&#45;&gt;0</title>
<path fill="none" stroke="red" stroke-width="2" d="M1826.25,-195.388C1885.21,-198.557 2025.6,-207.523 2142,-226 2150.45,-227.341 2159.46,-229.152 2167.92,-231.027"/>
<polygon fill="red" stroke="red" stroke-width="2" points="2167.37,-234.491 2177.9,-233.318 2168.94,-227.669 2167.37,-234.491"/>
</g>
<!-- 5 -->
<g id="node6" class="node"><title>5</title>
<path fill="none" stroke="#5673d8" stroke-width="2" d="M2130,-36C2130,-36 2084,-36 2084,-36 2078,-36 2072,-30 2072,-24 2072,-24 2072,-12 2072,-12 2072,-6 2078,-0 2084,-0 2084,-0 2130,-0 2130,-0 2136,-0 2142,-6 2142,-12 2142,-12 2142,-24 2142,-24 2142,-30 2136,-36 2130,-36"/>
<text text-anchor="middle" x="2107" y="-15.5" font-family="sans" font-size="10.00">fastqc_raw</text>
</g>
<!-- 5&#45;&gt;0 -->
<g id="edge9" class="edge"><title>5&#45;&gt;0</title>
<path fill="none" stroke="grey" stroke-width="2" d="M2130.6,-36.1934C2134.81,-40.3854 2138.87,-45.0725 2142,-50 2174.97,-101.948 2192.01,-173.094 2199.37,-211.916"/>
<polygon fill="grey" stroke="grey" stroke-width="2" points="2195.97,-212.751 2201.2,-221.965 2202.86,-211.501 2195.97,-212.751"/>
</g>
<!-- 6 -->
<g id="node7" class="node"><title>6</title>
<path fill="none" stroke="#9fd856" stroke-width="2" d="M393,-74C393,-74 328,-74 328,-74 322,-74 316,-68 316,-62 316,-62 316,-50 316,-50 316,-44 322,-38 328,-38 328,-38 393,-38 393,-38 399,-38 405,-44 405,-50 405,-50 405,-62 405,-62 405,-68 399,-74 393,-74"/>
<text text-anchor="middle" x="360.5" y="-53.5" font-family="sans" font-size="10.00">fastqc_merged</text>
</g>
<!-- 6&#45;&gt;0 -->
<g id="edge4" class="edge"><title>6&#45;&gt;0</title>
<path fill="none" stroke="grey" stroke-width="2" d="M405.043,-58.3786C452.023,-60.7368 529.039,-64 595.5,-64 595.5,-64 595.5,-64 2006.5,-64 2094.95,-64 2162.09,-163.607 2189.93,-212.953"/>
<polygon fill="grey" stroke="grey" stroke-width="2" points="2186.93,-214.757 2194.82,-221.828 2193.06,-211.38 2186.93,-214.757"/>
</g>
<!-- 33 -->
<g id="node34" class="node"><title>33</title>
<path fill="none" stroke="#56d8b9" stroke-width="2" d="M772.5,-166C772.5,-166 720.5,-166 720.5,-166 714.5,-166 708.5,-160 708.5,-154 708.5,-154 708.5,-142 708.5,-142 708.5,-136 714.5,-130 720.5,-130 720.5,-130 772.5,-130 772.5,-130 778.5,-130 784.5,-136 784.5,-142 784.5,-142 784.5,-154 784.5,-154 784.5,-160 778.5,-166 772.5,-166"/>
<text text-anchor="middle" x="746.5" y="-145.5" font-family="sans" font-size="10.00">fastqc_stats</text>
</g>
<!-- 6&#45;&gt;33 -->
<g id="edge56" class="edge"><title>6&#45;&gt;33</title>
<path fill="none" stroke="grey" stroke-width="2" d="M405.146,-68.4501C416.77,-71.664 429.338,-75.0476 441,-78 531.718,-100.968 638.453,-124.77 698.418,-137.851"/>
<polygon fill="grey" stroke="grey" stroke-width="2" points="697.828,-141.304 708.344,-140.011 699.317,-134.464 697.828,-141.304"/>
</g>
<!-- 7 -->
<g id="node8" class="node"><title>7</title>
<path fill="none" stroke="#8fd856" stroke-width="2" d="M626.5,-212C626.5,-212 566.5,-212 566.5,-212 560.5,-212 554.5,-206 554.5,-200 554.5,-200 554.5,-188 554.5,-188 554.5,-182 560.5,-176 566.5,-176 566.5,-176 626.5,-176 626.5,-176 632.5,-176 638.5,-182 638.5,-188 638.5,-188 638.5,-200 638.5,-200 638.5,-206 632.5,-212 626.5,-212"/>
<text text-anchor="middle" x="596.5" y="-191.5" font-family="sans" font-size="10.00">fastqc_postqc</text>
</g>
<!-- 7&#45;&gt;0 -->
<g id="edge5" class="edge"><title>7&#45;&gt;0</title>
<path fill="none" stroke="grey" stroke-width="2" d="M638.65,-190.531C679.593,-186.986 744.193,-181.145 800,-175 895.07,-164.531 917.855,-148 1013.5,-148 1013.5,-148 1013.5,-148 2006.5,-148 2070.58,-148 2136.35,-188.293 2173.5,-215.548"/>
<polygon fill="grey" stroke="grey" stroke-width="2" points="2171.77,-218.624 2181.87,-221.824 2175.97,-213.024 2171.77,-218.624"/>
</g>
<!-- 7&#45;&gt;33 -->
<g id="edge55" class="edge"><title>7&#45;&gt;33</title>
<path fill="none" stroke="grey" stroke-width="2" d="M638.726,-181.186C657.299,-175.414 679.324,-168.568 698.532,-162.598"/>
<polygon fill="grey" stroke="grey" stroke-width="2" points="699.776,-165.877 708.286,-159.566 697.698,-159.192 699.776,-165.877"/>
</g>
<!-- 8 -->
<g id="node9" class="node"><title>8</title>
<path fill="none" stroke="#569ad8" stroke-width="2" d="M1424.5,-486C1424.5,-486 1351.5,-486 1351.5,-486 1345.5,-486 1339.5,-480 1339.5,-474 1339.5,-474 1339.5,-462 1339.5,-462 1339.5,-456 1345.5,-450 1351.5,-450 1351.5,-450 1424.5,-450 1424.5,-450 1430.5,-450 1436.5,-456 1436.5,-462 1436.5,-462 1436.5,-474 1436.5,-474 1436.5,-480 1430.5,-486 1424.5,-486"/>
<text text-anchor="middle" x="1388" y="-465.5" font-family="sans" font-size="10.00">vtools_coverage</text>
</g>
<!-- 8&#45;&gt;0 -->
<g id="edge7" class="edge"><title>8&#45;&gt;0</title>
<path fill="none" stroke="grey" stroke-width="2" d="M1436.98,-459.529C1493.22,-450.351 1589.32,-437 1672.5,-437 1672.5,-437 1672.5,-437 2006.5,-437 2101.33,-437 2166.64,-321.743 2192.11,-267.548"/>
<polygon fill="grey" stroke="grey" stroke-width="2" points="2195.42,-268.729 2196.4,-258.18 2189.05,-265.815 2195.42,-268.729"/>
</g>
<!-- 9 -->
<g id="node10" class="node"><title>9</title>
<path fill="none" stroke="#56d86b" stroke-width="2" d="M1927,-344C1927,-344 1874,-344 1874,-344 1868,-344 1862,-338 1862,-332 1862,-332 1862,-320 1862,-320 1862,-314 1868,-308 1874,-308 1874,-308 1927,-308 1927,-308 1933,-308 1939,-314 1939,-320 1939,-320 1939,-332 1939,-332 1939,-338 1933,-344 1927,-344"/>
<text text-anchor="middle" x="1900.5" y="-323.5" font-family="sans" font-size="10.00">merge_stats</text>
</g>
<!-- 9&#45;&gt;0 -->
<g id="edge1" class="edge"><title>9&#45;&gt;0</title>
<path fill="none" stroke="grey" stroke-width="2" d="M1939.23,-332.743C1988.63,-339.68 2076.63,-345.416 2142,-313 2162.11,-303.027 2178.25,-283.272 2189.02,-266.825"/>
<polygon fill="grey" stroke="grey" stroke-width="2" points="2192.13,-268.452 2194.44,-258.111 2186.18,-264.755 2192.13,-268.452"/>
</g>
<!-- 12 -->
<g id="node13" class="node"><title>12</title>
<path fill="none" stroke="#56d0d8" stroke-width="2" d="M2024,-304C2024,-304 1987,-304 1987,-304 1981,-304 1975,-298 1975,-292 1975,-292 1975,-280 1975,-280 1975,-274 1981,-268 1987,-268 1987,-268 2024,-268 2024,-268 2030,-268 2036,-274 2036,-280 2036,-280 2036,-292 2036,-292 2036,-298 2030,-304 2024,-304"/>
<text text-anchor="middle" x="2005.5" y="-283.5" font-family="sans" font-size="10.00">stats_tsv</text>
</g>
<!-- 9&#45;&gt;12 -->
<g id="edge25" class="edge"><title>9&#45;&gt;12</title>
<path fill="none" stroke="grey" stroke-width="2" d="M1939.27,-311.333C1947.78,-308.028 1956.83,-304.513 1965.39,-301.188"/>
<polygon fill="grey" stroke="grey" stroke-width="2" points="1966.74,-304.417 1974.8,-297.534 1964.21,-297.892 1966.74,-304.417"/>
</g>
<!-- 10 -->
<g id="node11" class="node"><title>10</title>
<path fill="none" stroke="#d89c56" stroke-width="2" d="M1426.5,-432C1426.5,-432 1349.5,-432 1349.5,-432 1343.5,-432 1337.5,-426 1337.5,-420 1337.5,-420 1337.5,-408 1337.5,-408 1337.5,-402 1343.5,-396 1349.5,-396 1349.5,-396 1426.5,-396 1426.5,-396 1432.5,-396 1438.5,-402 1438.5,-408 1438.5,-408 1438.5,-420 1438.5,-420 1438.5,-426 1432.5,-432 1426.5,-432"/>
<text text-anchor="middle" x="1388" y="-411.5" font-family="sans" font-size="10.00">genotype_scatter</text>
</g>
<!-- 10&#45;&gt;1 -->
<g id="edge11" class="edge"><title>10&#45;&gt;1</title>
<path fill="none" stroke="red" stroke-width="2" d="M1408.4,-395.924C1432.52,-373.446 1473.84,-334.936 1501.17,-309.473"/>
<polygon fill="red" stroke="red" stroke-width="2" points="1503.89,-311.72 1508.82,-302.342 1499.12,-306.599 1503.89,-311.72"/>
</g>
<!-- 11 -->
<g id="node12" class="node"><title>11</title>
<path fill="none" stroke="#78d856" stroke-width="2" d="M1432,-302C1432,-302 1344,-302 1344,-302 1338,-302 1332,-296 1332,-290 1332,-290 1332,-278 1332,-278 1332,-272 1338,-266 1344,-266 1344,-266 1432,-266 1432,-266 1438,-266 1444,-272 1444,-278 1444,-278 1444,-290 1444,-290 1444,-296 1438,-302 1432,-302"/>
<text text-anchor="middle" x="1388" y="-281.5" font-family="sans" font-size="10.00">genotype_chunkfile</text>
</g>
<!-- 11&#45;&gt;1 -->
<g id="edge10" class="edge"><title>11&#45;&gt;1</title>
<path fill="none" stroke="red" stroke-width="2" d="M1444.13,-284C1452.47,-284 1461.1,-284 1469.52,-284"/>
<polygon fill="red" stroke="red" stroke-width="2" points="1469.64,-287.5 1479.64,-284 1469.64,-280.5 1469.64,-287.5"/>
</g>
<!-- 12&#45;&gt;2 -->
<g id="edge12" class="edge"><title>12&#45;&gt;2</title>
<path fill="none" stroke="grey" stroke-width="2" d="M2036.08,-286C2046.59,-286 2058.54,-286 2069.55,-286"/>
<polygon fill="grey" stroke="grey" stroke-width="2" points="2069.74,-289.5 2079.74,-286 2069.74,-282.5 2069.74,-289.5"/>
</g>
<!-- 13 -->
<g id="node14" class="node"><title>13</title>
<path fill="none" stroke="#56b1d8" stroke-width="2" d="M764.5,-450C764.5,-450 728.5,-450 728.5,-450 722.5,-450 716.5,-444 716.5,-438 716.5,-438 716.5,-426 716.5,-426 716.5,-420 722.5,-414 728.5,-414 728.5,-414 764.5,-414 764.5,-414 770.5,-414 776.5,-420 776.5,-426 776.5,-426 776.5,-438 776.5,-438 776.5,-444 770.5,-450 764.5,-450"/>
<text text-anchor="middle" x="746.5" y="-429.5" font-family="sans" font-size="10.00">markdup</text>
</g>
<!-- 13&#45;&gt;3 -->
<g id="edge13" class="edge"><title>13&#45;&gt;3</title>
<path fill="none" stroke="grey" stroke-width="2" d="M758.46,-450.226C773.137,-472.945 801.383,-511.193 836,-531 919.375,-578.704 1035.3,-588.292 1093.53,-589.927"/>
<polygon fill="grey" stroke="grey" stroke-width="2" points="1093.64,-593.43 1103.72,-590.147 1093.79,-586.431 1093.64,-593.43"/>
</g>
<!-- 25 -->
<g id="node26" class="node"><title>25</title>
<path fill="none" stroke="#d86656" stroke-width="2" d="M1041,-516C1041,-516 988,-516 988,-516 982,-516 976,-510 976,-504 976,-504 976,-492 976,-492 976,-486 982,-480 988,-480 988,-480 1041,-480 1041,-480 1047,-480 1053,-486 1053,-492 1053,-492 1053,-504 1053,-504 1053,-510 1047,-516 1041,-516"/>
<text text-anchor="middle" x="1014.5" y="-495.5" font-family="sans" font-size="10.00">gvcf_scatter</text>
</g>
<!-- 13&#45;&gt;25 -->
<g id="edge47" class="edge"><title>13&#45;&gt;25</title>
<path fill="none" stroke="red" stroke-width="2" d="M760.674,-450.352C776.128,-470.137 803.772,-500.478 836,-513 877.763,-529.227 929.106,-522.283 965.809,-513.197"/>
<polygon fill="red" stroke="red" stroke-width="2" points="966.965,-516.513 975.753,-510.595 965.193,-509.741 966.965,-516.513"/>
</g>
<!-- 31 -->
<g id="node32" class="node"><title>31</title>
<path fill="none" stroke="#5663d8" stroke-width="2" d="M912,-450C912,-450 859,-450 859,-450 853,-450 847,-444 847,-438 847,-438 847,-426 847,-426 847,-420 853,-414 859,-414 859,-414 912,-414 912,-414 918,-414 924,-420 924,-426 924,-426 924,-438 924,-438 924,-444 918,-450 912,-450"/>
<text text-anchor="middle" x="885.5" y="-429.5" font-family="sans" font-size="10.00">unique_num</text>
</g>
<!-- 13&#45;&gt;31 -->
<g id="edge53" class="edge"><title>13&#45;&gt;31</title>
<path fill="none" stroke="grey" stroke-width="2" d="M776.554,-432C794.011,-432 816.654,-432 836.69,-432"/>
<polygon fill="grey" stroke="grey" stroke-width="2" points="836.889,-435.5 846.889,-432 836.889,-428.5 836.889,-435.5"/>
</g>
<!-- 32 -->
<g id="node33" class="node"><title>32</title>
<path fill="none" stroke="#afd856" stroke-width="2" d="M923,-396C923,-396 848,-396 848,-396 842,-396 836,-390 836,-384 836,-384 836,-372 836,-372 836,-366 842,-360 848,-360 848,-360 923,-360 923,-360 929,-360 935,-366 935,-372 935,-372 935,-384 935,-384 935,-390 929,-396 923,-396"/>
<text text-anchor="middle" x="885.5" y="-375.5" font-family="sans" font-size="10.00">usable_basenum</text>
</g>
<!-- 13&#45;&gt;32 -->
<g id="edge54" class="edge"><title>13&#45;&gt;32</title>
<path fill="none" stroke="grey" stroke-width="2" d="M776.554,-420.548C791.938,-414.484 811.348,-406.834 829.453,-399.697"/>
<polygon fill="grey" stroke="grey" stroke-width="2" points="830.754,-402.947 838.774,-396.023 828.187,-396.434 830.754,-402.947"/>
</g>
<!-- 34 -->
<g id="node35" class="node"><title>34</title>
<path fill="none" stroke="#d88d56" stroke-width="2" d="M902.5,-342C902.5,-342 868.5,-342 868.5,-342 862.5,-342 856.5,-336 856.5,-330 856.5,-330 856.5,-318 856.5,-318 856.5,-312 862.5,-306 868.5,-306 868.5,-306 902.5,-306 902.5,-306 908.5,-306 914.5,-312 914.5,-318 914.5,-318 914.5,-330 914.5,-330 914.5,-336 908.5,-342 902.5,-342"/>
<text text-anchor="middle" x="885.5" y="-321.5" font-family="sans" font-size="10.00">covstats</text>
</g>
<!-- 13&#45;&gt;34 -->
<g id="edge58" class="edge"><title>13&#45;&gt;34</title>
<path fill="none" stroke="grey" stroke-width="2" d="M764.742,-413.938C781.849,-396.588 809.304,-370.244 836,-351 839.661,-348.361 843.605,-345.784 847.607,-343.335"/>
<polygon fill="grey" stroke="grey" stroke-width="2" points="849.511,-346.276 856.371,-338.202 845.973,-340.236 849.511,-346.276"/>
</g>
<!-- 37 -->
<g id="node38" class="node"><title>37</title>
<path fill="none" stroke="#56d8c9" stroke-width="2" d="M905.5,-504C905.5,-504 865.5,-504 865.5,-504 859.5,-504 853.5,-498 853.5,-492 853.5,-492 853.5,-480 853.5,-480 853.5,-474 859.5,-468 865.5,-468 865.5,-468 905.5,-468 905.5,-468 911.5,-468 917.5,-474 917.5,-480 917.5,-480 917.5,-492 917.5,-492 917.5,-498 911.5,-504 905.5,-504"/>
<text text-anchor="middle" x="885.5" y="-483.5" font-family="sans" font-size="10.00">baserecal</text>
</g>
<!-- 13&#45;&gt;37 -->
<g id="edge63" class="edge"><title>13&#45;&gt;37</title>
<path fill="none" stroke="red" stroke-width="2" d="M776.554,-443.452C796.035,-451.13 821.972,-461.354 843.539,-469.855"/>
<polygon fill="red" stroke="red" stroke-width="2" points="842.515,-473.213 853.102,-473.624 845.082,-466.701 842.515,-473.213"/>
</g>
<!-- 14&#45;&gt;4 -->
<g id="edge15" class="edge"><title>14&#45;&gt;4</title>
<path fill="none" stroke="red" stroke-width="2" d="M1699.09,-265.787C1717.53,-252.124 1742.97,-233.282 1763.16,-218.329"/>
<polygon fill="red" stroke="red" stroke-width="2" points="1765.5,-220.951 1771.45,-212.186 1761.33,-215.326 1765.5,-220.951"/>
</g>
<!-- 14&#45;&gt;21 -->
<g id="edge42" class="edge"><title>14&#45;&gt;21</title>
<path fill="none" stroke="grey" stroke-width="2" d="M1732.05,-301.998C1741.31,-304.894 1750.66,-307.821 1759.26,-310.508"/>
<polygon fill="grey" stroke="grey" stroke-width="2" points="1758.35,-313.893 1768.94,-313.537 1760.44,-307.212 1758.35,-313.893"/>
</g>
<!-- 15 -->
<g id="node16" class="node"><title>15</title>
<path fill="none" stroke="#568ad8" stroke-width="2" d="M51,-116C51,-116 12,-116 12,-116 6,-116 0,-110 0,-104 0,-104 0,-92 0,-92 0,-86 6,-80 12,-80 12,-80 51,-80 51,-80 57,-80 63,-86 63,-92 63,-92 63,-104 63,-104 63,-110 57,-116 51,-116"/>
<text text-anchor="middle" x="31.5" y="-95.5" font-family="sans" font-size="10.00">merge_r1</text>
</g>
<!-- 15&#45;&gt;6 -->
<g id="edge17" class="edge"><title>15&#45;&gt;6</title>
<path fill="none" stroke="grey" stroke-width="2" d="M50.7667,-79.9287C63.2168,-68.9366 80.7096,-55.9115 99,-50 167.746,-27.781 252.103,-35.6201 305.836,-44.661"/>
<polygon fill="grey" stroke="grey" stroke-width="2" points="305.377,-48.1338 315.832,-46.4162 306.588,-41.2393 305.377,-48.1338"/>
</g>
<!-- 27 -->
<g id="node28" class="node"><title>27</title>
<path fill="none" stroke="#56d87b" stroke-width="2" d="M173,-166C173,-166 111,-166 111,-166 105,-166 99,-160 99,-154 99,-154 99,-142 99,-142 99,-136 105,-130 111,-130 111,-130 173,-130 173,-130 179,-130 185,-136 185,-142 185,-142 185,-154 185,-154 185,-160 179,-166 173,-166"/>
<text text-anchor="middle" x="142" y="-145.5" font-family="sans" font-size="10.00">fqcount_preqc</text>
</g>
<!-- 15&#45;&gt;27 -->
<g id="edge49" class="edge"><title>15&#45;&gt;27</title>
<path fill="none" stroke="red" stroke-width="2" d="M63.012,-112.061C72.2258,-116.307 82.5776,-121.077 92.6543,-125.721"/>
<polygon fill="red" stroke="red" stroke-width="2" points="91.2438,-128.925 101.791,-129.931 94.1735,-122.567 91.2438,-128.925"/>
</g>
<!-- 35 -->
<g id="node36" class="node"><title>35</title>
<path fill="none" stroke="#56d85b" stroke-width="2" d="M268,-166C268,-166 233,-166 233,-166 227,-166 221,-160 221,-154 221,-154 221,-142 221,-142 221,-136 227,-130 233,-130 233,-130 268,-130 268,-130 274,-130 280,-136 280,-142 280,-142 280,-154 280,-154 280,-160 274,-166 268,-166"/>
<text text-anchor="middle" x="250.5" y="-145.5" font-family="sans" font-size="10.00">seqtk_r1</text>
</g>
<!-- 15&#45;&gt;35 -->
<g id="edge60" class="edge"><title>15&#45;&gt;35</title>
<path fill="none" stroke="red" stroke-width="2" d="M63.057,-100.376C94.1821,-103.313 143.618,-109.411 185,-121 193.748,-123.45 202.893,-126.775 211.456,-130.254"/>
<polygon fill="red" stroke="red" stroke-width="2" points="210.25,-133.544 220.824,-134.209 212.973,-127.095 210.25,-133.544"/>
</g>
<!-- 16 -->
<g id="node17" class="node"><title>16</title>
<path fill="none" stroke="#d8a456" stroke-width="2" d="M51,-170C51,-170 12,-170 12,-170 6,-170 0,-164 0,-158 0,-158 0,-146 0,-146 0,-140 6,-134 12,-134 12,-134 51,-134 51,-134 57,-134 63,-140 63,-146 63,-146 63,-158 63,-158 63,-164 57,-170 51,-170"/>
<text text-anchor="middle" x="31.5" y="-149.5" font-family="sans" font-size="10.00">merge_r2</text>
</g>
<!-- 16&#45;&gt;6 -->
<g id="edge16" class="edge"><title>16&#45;&gt;6</title>
<path fill="none" stroke="grey" stroke-width="2" d="M63.1571,-136.364C74.2707,-131.056 87.0352,-125.37 99,-121 168.719,-95.5352 252.495,-76.6006 305.865,-65.9248"/>
<polygon fill="grey" stroke="grey" stroke-width="2" points="306.661,-69.3354 315.793,-63.9641 305.305,-62.468 306.661,-69.3354"/>
</g>
<!-- 16&#45;&gt;27 -->
<g id="edge48" class="edge"><title>16&#45;&gt;27</title>
<path fill="none" stroke="red" stroke-width="2" d="M63.012,-150.875C71.031,-150.58 79.912,-150.252 88.7234,-149.927"/>
<polygon fill="red" stroke="red" stroke-width="2" points="89.1153,-153.415 98.9795,-149.549 88.8573,-146.42 89.1153,-153.415"/>
</g>
<!-- 36 -->
<g id="node37" class="node"><title>36</title>
<path fill="none" stroke="#b6d856" stroke-width="2" d="M268,-220C268,-220 233,-220 233,-220 227,-220 221,-214 221,-208 221,-208 221,-196 221,-196 221,-190 227,-184 233,-184 233,-184 268,-184 268,-184 274,-184 280,-190 280,-196 280,-196 280,-208 280,-208 280,-214 274,-220 268,-220"/>
<text text-anchor="middle" x="250.5" y="-199.5" font-family="sans" font-size="10.00">seqtk_r2</text>
</g>
<!-- 16&#45;&gt;36 -->
<g id="edge62" class="edge"><title>16&#45;&gt;36</title>
<path fill="none" stroke="red" stroke-width="2" d="M63.3181,-163.777C74.4468,-167.731 87.1796,-171.916 99,-175 136.452,-184.773 180.064,-192.172 210.669,-196.731"/>
<polygon fill="red" stroke="red" stroke-width="2" points="210.521,-200.246 220.921,-198.225 211.53,-193.319 210.521,-200.246"/>
</g>
<!-- 17 -->
<g id="node18" class="node"><title>17</title>
<path fill="none" stroke="#d6d856" stroke-width="2" d="M488,-250C488,-250 453,-250 453,-250 447,-250 441,-244 441,-238 441,-238 441,-226 441,-226 441,-220 447,-214 453,-214 453,-214 488,-214 488,-214 494,-214 500,-220 500,-226 500,-226 500,-238 500,-238 500,-244 494,-250 488,-250"/>
<text text-anchor="middle" x="470.5" y="-229.5" font-family="sans" font-size="10.00">cutadapt</text>
</g>
<!-- 17&#45;&gt;7 -->
<g id="edge18" class="edge"><title>17&#45;&gt;7</title>
<path fill="none" stroke="grey" stroke-width="2" d="M500.26,-223.187C513.406,-219.158 529.383,-214.262 544.466,-209.639"/>
<polygon fill="grey" stroke="grey" stroke-width="2" points="545.674,-212.93 554.21,-206.653 543.623,-206.237 545.674,-212.93"/>
</g>
<!-- 22 -->
<g id="node23" class="node"><title>22</title>
<path fill="none" stroke="#d87d56" stroke-width="2" d="M611.5,-281C611.5,-281 581.5,-281 581.5,-281 575.5,-281 569.5,-275 569.5,-269 569.5,-269 569.5,-257 569.5,-257 569.5,-251 575.5,-245 581.5,-245 581.5,-245 611.5,-245 611.5,-245 617.5,-245 623.5,-251 623.5,-257 623.5,-257 623.5,-269 623.5,-269 623.5,-275 617.5,-281 611.5,-281"/>
<text text-anchor="middle" x="596.5" y="-260.5" font-family="sans" font-size="10.00">align</text>
</g>
<!-- 17&#45;&gt;22 -->
<g id="edge43" class="edge"><title>17&#45;&gt;22</title>
<path fill="none" stroke="red" stroke-width="2" d="M500.26,-239.19C517.968,-243.617 540.813,-249.328 559.69,-254.047"/>
<polygon fill="red" stroke="red" stroke-width="2" points="558.88,-257.453 569.43,-256.482 560.577,-250.662 558.88,-257.453"/>
</g>
<!-- 28 -->
<g id="node29" class="node"><title>28</title>
<path fill="none" stroke="#d8b456" stroke-width="2" d="M630,-546C630,-546 563,-546 563,-546 557,-546 551,-540 551,-534 551,-534 551,-522 551,-522 551,-516 557,-510 563,-510 563,-510 630,-510 630,-510 636,-510 642,-516 642,-522 642,-522 642,-534 642,-534 642,-540 636,-546 630,-546"/>
<text text-anchor="middle" x="596.5" y="-525.5" font-family="sans" font-size="10.00">fqcount_postqc</text>
</g>
<!-- 17&#45;&gt;28 -->
<g id="edge50" class="edge"><title>17&#45;&gt;28</title>
<path fill="none" stroke="grey" stroke-width="2" d="M473.917,-250.075C479.803,-289.87 497.326,-387.226 536,-459 544.494,-474.764 557.11,-490.078 568.543,-502.258"/>
<polygon fill="grey" stroke="grey" stroke-width="2" points="566.358,-505.034 575.829,-509.783 571.387,-500.165 566.358,-505.034"/>
</g>
<!-- 18 -->
<g id="node19" class="node"><title>18</title>
<path fill="none" stroke="#61d856" stroke-width="2" d="M1156,-474C1156,-474 1106,-474 1106,-474 1100,-474 1094,-468 1094,-462 1094,-462 1094,-450 1094,-450 1094,-444 1100,-438 1106,-438 1106,-438 1156,-438 1156,-438 1162,-438 1168,-444 1168,-450 1168,-450 1168,-462 1168,-462 1168,-468 1162,-474 1156,-474"/>
<text text-anchor="middle" x="1131" y="-453.5" font-family="sans" font-size="10.00">gvcf_gather</text>
</g>
<!-- 18&#45;&gt;8 -->
<g id="edge20" class="edge"><title>18&#45;&gt;8</title>
<path fill="none" stroke="grey" stroke-width="2" d="M1168.28,-472.489C1179.49,-476.794 1192.05,-480.832 1204,-483 1245.57,-490.538 1293.15,-486.25 1329.37,-480.361"/>
<polygon fill="grey" stroke="grey" stroke-width="2" points="1330.01,-483.803 1339.27,-478.666 1328.83,-476.904 1330.01,-483.803"/>
</g>
<!-- 18&#45;&gt;10 -->
<g id="edge24" class="edge"><title>18&#45;&gt;10</title>
<path fill="none" stroke="red" stroke-width="2" d="M1168.03,-440.259C1179.35,-435.925 1192.01,-431.684 1204,-429 1244.35,-419.966 1290.78,-416.236 1326.78,-414.754"/>
<polygon fill="red" stroke="red" stroke-width="2" points="1327.26,-418.239 1337.12,-414.378 1327,-411.244 1327.26,-418.239"/>
</g>
<!-- 19 -->
<g id="node20" class="node"><title>19</title>
<path fill="none" stroke="#88d856" stroke-width="2" d="M1284,-474C1284,-474 1216,-474 1216,-474 1210,-474 1204,-468 1204,-462 1204,-462 1204,-450 1204,-450 1204,-444 1210,-438 1216,-438 1216,-438 1284,-438 1284,-438 1290,-438 1296,-444 1296,-450 1296,-450 1296,-462 1296,-462 1296,-468 1290,-474 1284,-474"/>
<text text-anchor="middle" x="1250" y="-453.5" font-family="sans" font-size="10.00">gvcf_gather_tbi</text>
</g>
<!-- 18&#45;&gt;19 -->
<g id="edge32" class="edge"><title>18&#45;&gt;19</title>
<path fill="none" stroke="red" stroke-width="2" d="M1168.06,-456C1176.17,-456 1184.95,-456 1193.64,-456"/>
<polygon fill="red" stroke="red" stroke-width="2" points="1193.76,-459.5 1203.76,-456 1193.76,-452.5 1193.76,-459.5"/>
</g>
<!-- 19&#45;&gt;8 -->
<g id="edge19" class="edge"><title>19&#45;&gt;8</title>
<path fill="none" stroke="grey" stroke-width="2" d="M1296.29,-459.996C1306.71,-460.916 1317.94,-461.906 1328.82,-462.867"/>
<polygon fill="grey" stroke="grey" stroke-width="2" points="1328.85,-466.382 1339.11,-463.775 1329.46,-459.409 1328.85,-466.382"/>
</g>
<!-- 19&#45;&gt;10 -->
<g id="edge23" class="edge"><title>19&#45;&gt;10</title>
<path fill="none" stroke="red" stroke-width="2" d="M1296.29,-442.015C1306.34,-438.909 1317.15,-435.572 1327.67,-432.321"/>
<polygon fill="red" stroke="red" stroke-width="2" points="1328.71,-435.665 1337.23,-429.37 1326.64,-428.977 1328.71,-435.665"/>
</g>
<!-- 20 -->
<g id="node21" class="node"><title>20</title>
<path fill="none" stroke="#d86e56" stroke-width="2" d="M1039,-342C1039,-342 990,-342 990,-342 984,-342 978,-336 978,-330 978,-330 978,-318 978,-318 978,-312 984,-306 990,-306 990,-306 1039,-306 1039,-306 1045,-306 1051,-312 1051,-318 1051,-318 1051,-330 1051,-330 1051,-336 1045,-342 1039,-342"/>
<text text-anchor="middle" x="1014.5" y="-321.5" font-family="sans" font-size="10.00">collectstats</text>
</g>
<!-- 20&#45;&gt;9 -->
<g id="edge21" class="edge"><title>20&#45;&gt;9</title>
<path fill="none" stroke="grey" stroke-width="2" d="M1051.11,-334.99C1096.56,-348.022 1177.84,-368 1249,-368 1249,-368 1249,-368 1674.5,-368 1742.36,-368 1759.69,-363.413 1826,-349 1834.45,-347.163 1843.33,-344.786 1851.87,-342.259"/>
<polygon fill="grey" stroke="grey" stroke-width="2" points="1853.16,-345.523 1861.7,-339.247 1851.11,-338.83 1853.16,-345.523"/>
</g>
<!-- 21&#45;&gt;9 -->
<g id="edge22" class="edge"><title>21&#45;&gt;9</title>
<path fill="none" stroke="grey" stroke-width="2" d="M1825.2,-323.072C1833.39,-323.395 1842.64,-323.759 1851.75,-324.118"/>
<polygon fill="grey" stroke="grey" stroke-width="2" points="1851.79,-327.622 1861.92,-324.519 1852.07,-320.628 1851.79,-327.622"/>
</g>
<!-- 22&#45;&gt;13 -->
<g id="edge27" class="edge"><title>22&#45;&gt;13</title>
<path fill="none" stroke="red" stroke-width="2" d="M613.339,-281.086C639.641,-311.121 692.427,-371.397 722.724,-405.992"/>
<polygon fill="red" stroke="red" stroke-width="2" points="720.33,-408.571 729.552,-413.789 725.596,-403.96 720.33,-408.571"/>
</g>
<!-- 29 -->
<g id="node30" class="node"><title>29</title>
<path fill="none" stroke="#56d8d8" stroke-width="2" d="M915,-250C915,-250 856,-250 856,-250 850,-250 844,-244 844,-238 844,-238 844,-226 844,-226 844,-220 850,-214 856,-214 856,-214 915,-214 915,-214 921,-214 927,-220 927,-226 927,-226 927,-238 927,-238 927,-244 921,-250 915,-250"/>
<text text-anchor="middle" x="885.5" y="-229.5" font-family="sans" font-size="10.00">mapped_num</text>
</g>
<!-- 22&#45;&gt;29 -->
<g id="edge51" class="edge"><title>22&#45;&gt;29</title>
<path fill="none" stroke="grey" stroke-width="2" d="M623.826,-259.504C642.993,-257.005 669.586,-253.632 693,-251 740.697,-245.638 795.168,-240.311 833.79,-236.668"/>
<polygon fill="grey" stroke="grey" stroke-width="2" points="834.119,-240.152 843.748,-235.732 833.465,-233.183 834.119,-240.152"/>
</g>
<!-- 30 -->
<g id="node31" class="node"><title>30</title>
<path fill="none" stroke="#56d8a2" stroke-width="2" d="M788,-296C788,-296 705,-296 705,-296 699,-296 693,-290 693,-284 693,-284 693,-272 693,-272 693,-266 699,-260 705,-260 705,-260 788,-260 788,-260 794,-260 800,-266 800,-272 800,-272 800,-284 800,-284 800,-290 794,-296 788,-296"/>
<text text-anchor="middle" x="746.5" y="-275.5" font-family="sans" font-size="10.00">mapped_basenum</text>
</g>
<!-- 22&#45;&gt;30 -->
<g id="edge52" class="edge"><title>22&#45;&gt;30</title>
<path fill="none" stroke="grey" stroke-width="2" d="M623.619,-265.647C640.092,-267.317 662.114,-269.549 682.905,-271.656"/>
<polygon fill="grey" stroke="grey" stroke-width="2" points="682.681,-275.151 692.983,-272.677 683.387,-268.187 682.681,-275.151"/>
</g>
<!-- 23 -->
<g id="node24" class="node"><title>23</title>
<path fill="none" stroke="#56d8a9" stroke-width="2" d="M645,-450C645,-450 548,-450 548,-450 542,-450 536,-444 536,-438 536,-438 536,-426 536,-426 536,-420 542,-414 548,-414 548,-414 645,-414 645,-414 651,-414 657,-420 657,-426 657,-426 657,-438 657,-438 657,-444 651,-450 645,-450"/>
<text text-anchor="middle" x="596.5" y="-429.5" font-family="sans" font-size="10.00">create_markdup_tmp</text>
</g>
<!-- 23&#45;&gt;13 -->
<g id="edge26" class="edge"><title>23&#45;&gt;13</title>
<path fill="none" stroke="red" stroke-width="2" d="M657.271,-432C673.668,-432 691.034,-432 705.982,-432"/>
<polygon fill="red" stroke="red" stroke-width="2" points="706.391,-435.5 716.391,-432 706.391,-428.5 706.391,-435.5"/>
</g>
<!-- 24 -->
<g id="node25" class="node"><title>24</title>
<path fill="none" stroke="#56d882" stroke-width="2" d="M375.5,-220C375.5,-220 345.5,-220 345.5,-220 339.5,-220 333.5,-214 333.5,-208 333.5,-208 333.5,-196 333.5,-196 333.5,-190 339.5,-184 345.5,-184 345.5,-184 375.5,-184 375.5,-184 381.5,-184 387.5,-190 387.5,-196 387.5,-196 387.5,-208 387.5,-208 387.5,-214 381.5,-220 375.5,-220"/>
<text text-anchor="middle" x="360.5" y="-199.5" font-family="sans" font-size="10.00">sickle</text>
</g>
<!-- 24&#45;&gt;17 -->
<g id="edge29" class="edge"><title>24&#45;&gt;17</title>
<path fill="none" stroke="red" stroke-width="2" d="M387.644,-209.262C400.73,-212.897 416.822,-217.367 431.265,-221.379"/>
<polygon fill="red" stroke="red" stroke-width="2" points="430.371,-224.763 440.943,-224.068 432.245,-218.019 430.371,-224.763"/>
</g>
<!-- 25&#45;&gt;18 -->
<g id="edge30" class="edge"><title>25&#45;&gt;18</title>
<path fill="none" stroke="red" stroke-width="2" d="M1053.31,-484.131C1063.18,-480.51 1073.93,-476.567 1084.17,-472.811"/>
<polygon fill="red" stroke="red" stroke-width="2" points="1085.6,-476.013 1093.79,-469.284 1083.19,-469.442 1085.6,-476.013"/>
</g>
<!-- 26 -->
<g id="node27" class="node"><title>26</title>
<path fill="none" stroke="#56a9d8" stroke-width="2" d="M1046,-462C1046,-462 983,-462 983,-462 977,-462 971,-456 971,-450 971,-450 971,-438 971,-438 971,-432 977,-426 983,-426 983,-426 1046,-426 1046,-426 1052,-426 1058,-432 1058,-438 1058,-438 1058,-450 1058,-450 1058,-456 1052,-462 1046,-462"/>
<text text-anchor="middle" x="1014.5" y="-441.5" font-family="sans" font-size="10.00">gvcf_chunkfile</text>
</g>
<!-- 26&#45;&gt;18 -->
<g id="edge31" class="edge"><title>26&#45;&gt;18</title>
<path fill="none" stroke="red" stroke-width="2" d="M1058.14,-448.468C1066.45,-449.34 1075.21,-450.258 1083.64,-451.142"/>
<polygon fill="red" stroke="red" stroke-width="2" points="1083.4,-454.635 1093.71,-452.197 1084.13,-447.674 1083.4,-454.635"/>
</g>
<!-- 27&#45;&gt;20 -->
<g id="edge34" class="edge"><title>27&#45;&gt;20</title>
<path fill="none" stroke="grey" stroke-width="2" d="M185.056,-131.746C196.575,-127.762 209.154,-123.834 221,-121 281.427,-106.546 297.368,-102 359.5,-102 359.5,-102 359.5,-102 747.5,-102 834.471,-102 869.025,-101.333 935,-158 977.37,-194.393 998.514,-258.725 1007.64,-295.708"/>
<polygon fill="grey" stroke="grey" stroke-width="2" points="1004.32,-296.866 1010,-305.807 1011.13,-295.273 1004.32,-296.866"/>
</g>
<!-- 27&#45;&gt;35 -->
<g id="edge59" class="edge"><title>27&#45;&gt;35</title>
<path fill="none" stroke="red" stroke-width="2" d="M185.092,-148C193.513,-148 202.324,-148 210.631,-148"/>
<polygon fill="red" stroke="red" stroke-width="2" points="210.816,-151.5 220.815,-148 210.815,-144.5 210.816,-151.5"/>
</g>
<!-- 27&#45;&gt;36 -->
<g id="edge61" class="edge"><title>27&#45;&gt;36</title>
<path fill="none" stroke="red" stroke-width="2" d="M178.759,-166.131C189.322,-171.487 200.918,-177.367 211.61,-182.788"/>
<polygon fill="red" stroke="red" stroke-width="2" points="210.223,-186.009 220.725,-187.41 213.388,-179.766 210.223,-186.009"/>
</g>
<!-- 28&#45;&gt;20 -->
<g id="edge33" class="edge"><title>28&#45;&gt;20</title>
<path fill="none" stroke="grey" stroke-width="2" d="M642.138,-540.225C711.902,-556.48 847.804,-576.338 935,-513 971.868,-486.219 953.519,-459.082 971,-417 980.294,-394.627 991.757,-369.678 1000.43,-351.258"/>
<polygon fill="grey" stroke="grey" stroke-width="2" points="1003.7,-352.547 1004.82,-342.012 997.371,-349.55 1003.7,-352.547"/>
</g>
<!-- 29&#45;&gt;20 -->
<g id="edge39" class="edge"><title>29&#45;&gt;20</title>
<path fill="none" stroke="grey" stroke-width="2" d="M914.679,-250.117C921.399,-254.568 928.504,-259.383 935,-264 951.012,-275.381 968.408,-288.587 982.745,-299.707"/>
<polygon fill="grey" stroke="grey" stroke-width="2" points="980.761,-302.598 990.8,-305.984 985.063,-297.077 980.761,-302.598"/>
</g>
<!-- 30&#45;&gt;20 -->
<g id="edge36" class="edge"><title>30&#45;&gt;20</title>
<path fill="none" stroke="grey" stroke-width="2" d="M800.142,-280.093C838.007,-282.381 890.1,-287.142 935,-297 945.885,-299.39 957.357,-302.8 968.068,-306.395"/>
<polygon fill="grey" stroke="grey" stroke-width="2" points="967.057,-309.749 977.651,-309.725 969.354,-303.137 967.057,-309.749"/>
</g>
<!-- 31&#45;&gt;20 -->
<g id="edge40" class="edge"><title>31&#45;&gt;20</title>
<path fill="none" stroke="grey" stroke-width="2" d="M921.981,-413.858C926.495,-411.089 930.948,-408.109 935,-405 956.095,-388.813 976.896,-367.01 991.781,-350.102"/>
<polygon fill="grey" stroke="grey" stroke-width="2" points="994.687,-352.092 998.588,-342.241 989.396,-347.51 994.687,-352.092"/>
</g>
<!-- 32&#45;&gt;20 -->
<g id="edge35" class="edge"><title>32&#45;&gt;20</title>
<path fill="none" stroke="grey" stroke-width="2" d="M929.142,-359.869C941.776,-354.497 955.648,-348.599 968.429,-343.164"/>
<polygon fill="grey" stroke="grey" stroke-width="2" points="970.119,-346.249 977.952,-339.115 967.38,-339.807 970.119,-346.249"/>
</g>
<!-- 33&#45;&gt;20 -->
<g id="edge37" class="edge"><title>33&#45;&gt;20</title>
<path fill="none" stroke="grey" stroke-width="2" d="M784.681,-151.754C825.13,-157.442 890.019,-171.412 935,-205 966.792,-228.739 989.55,-269.413 1002.12,-296.502"/>
<polygon fill="grey" stroke="grey" stroke-width="2" points="999.009,-298.114 1006.29,-305.811 1005.4,-295.254 999.009,-298.114"/>
</g>
<!-- 34&#45;&gt;20 -->
<g id="edge38" class="edge"><title>34&#45;&gt;20</title>
<path fill="none" stroke="grey" stroke-width="2" d="M914.685,-324C930.202,-324 949.843,-324 967.519,-324"/>
<polygon fill="grey" stroke="grey" stroke-width="2" points="967.653,-327.5 977.653,-324 967.653,-320.5 967.653,-327.5"/>
</g>
<!-- 35&#45;&gt;24 -->
<g id="edge45" class="edge"><title>35&#45;&gt;24</title>
<path fill="none" stroke="red" stroke-width="2" d="M280.158,-162.329C293.692,-169.096 309.971,-177.236 324.253,-184.376"/>
<polygon fill="red" stroke="red" stroke-width="2" points="322.791,-187.558 333.3,-188.9 325.921,-181.297 322.791,-187.558"/>
</g>
<!-- 36&#45;&gt;24 -->
<g id="edge44" class="edge"><title>36&#45;&gt;24</title>
<path fill="none" stroke="red" stroke-width="2" d="M280.158,-202C293.305,-202 309.043,-202 323.024,-202"/>
<polygon fill="red" stroke="red" stroke-width="2" points="323.3,-205.5 333.3,-202 323.3,-198.5 323.3,-205.5"/>
</g>
<!-- 37&#45;&gt;25 -->
<g id="edge46" class="edge"><title>37&#45;&gt;25</title>
<path fill="none" stroke="red" stroke-width="2" d="M917.568,-488.936C932.025,-490.302 949.548,-491.957 965.642,-493.478"/>
<polygon fill="red" stroke="red" stroke-width="2" points="965.68,-496.997 975.965,-494.453 966.338,-490.028 965.68,-496.997"/>
</g>
<!-- 38 -->
<g id="node39" class="node"><title>38</title>
<path fill="none" stroke="#d8cb56" stroke-width="2" d="M762.5,-350C762.5,-350 730.5,-350 730.5,-350 724.5,-350 718.5,-344 718.5,-338 718.5,-338 718.5,-326 718.5,-326 718.5,-320 724.5,-314 730.5,-314 730.5,-314 762.5,-314 762.5,-314 768.5,-314 774.5,-320 774.5,-326 774.5,-326 774.5,-338 774.5,-338 774.5,-344 768.5,-350 762.5,-350"/>
<text text-anchor="middle" x="746.5" y="-329.5" font-family="sans" font-size="10.00">genome</text>
</g>
<!-- 38&#45;&gt;34 -->
<g id="edge57" class="edge"><title>38&#45;&gt;34</title>
<path fill="none" stroke="grey" stroke-width="2" d="M774.567,-330.419C794.989,-329.227 823.282,-327.575 846.05,-326.245"/>
<polygon fill="grey" stroke="grey" stroke-width="2" points="846.296,-329.737 856.075,-325.66 845.887,-322.749 846.296,-329.737"/>
</g>
</g>
</svg>
